<svg width="190" height="65" viewBox="0 0 190 65" fill="none" xmlns="http://www.w3.org/2000/svg">
<g id="Frame">
<path id="Vector" d="M51.2679 17.4273H55.5721L49.4799 32.6761H43.9838L39.4368 21.1959L34.8677 32.6761H29.3936L23.3014 17.4273H27.5836L32.1527 29.4085L36.9867 17.4273H41.8648L46.7208 29.4303L51.2679 17.4273ZM72.8364 20.5424H60.4755V23.6357H72.8364V26.4677H60.4755V29.5609H72.8364V32.6761H56.5024V17.4273H72.8364V20.5424ZM97.9484 17.4273V32.6761H93.9748V22.2198L87.5516 32.6761H84.6822L78.2588 22.2198V32.6761H74.2858V17.4273H79.6495L86.1169 28.1886L92.5842 17.4273H97.9484ZM119.146 25.0299C119.146 30.3235 116.209 32.894 109.433 32.894C102.635 32.894 99.7213 30.3452 99.7213 25.0299V17.4273H103.695V25.0299C103.695 27.1647 104.29 29.6045 109.433 29.6045C114.577 29.6045 115.172 27.1429 115.172 25.0299V17.4273H119.146V25.0299ZM120.582 27.4261H124.555C124.555 29.0382 125.88 29.7788 130.912 29.7788C135.084 29.7788 136.342 29.3214 136.342 28.1232C136.342 26.8598 135.459 26.6419 130.449 26.4023C123.716 26.0974 121.046 25.0517 121.046 21.6316C121.046 18.2768 124.511 17.2095 130.294 17.2095C136.122 17.2095 139.654 18.6472 139.654 22.4158H135.68C135.68 20.7384 133.98 20.3245 129.853 20.3245C125.946 20.3245 125.019 20.6948 125.019 21.8277C125.019 23.004 125.946 23.2218 130.449 23.4833C136.541 23.81 140.316 24.1367 140.316 27.9925C140.316 32.0662 136.409 32.894 130.691 32.894C124.357 32.894 120.582 31.8265 120.582 27.4261ZM145.728 17.4273V32.6761H141.755V17.4273H145.728ZM147.052 25.0299C147.052 19.976 149.966 17.2095 156.764 17.2095C162.923 17.2095 166.013 19.5185 166.411 23.9189H162.371C161.995 21.4574 160.075 20.4988 156.764 20.4988C152.725 20.4988 151.025 21.9147 151.025 25.0299C151.025 28.1668 152.747 29.6045 156.764 29.6045C160.053 29.6045 161.995 28.6243 162.371 26.1408H166.411C166.013 30.563 162.923 32.894 156.764 32.894C149.966 32.894 147.052 30.1056 147.052 25.0299Z" fill="#CDCDCD"/>
<path id="Vector_2" d="M38.7425 54.0142C38.7425 53.4332 38.7425 52.8742 38.7425 52.3371C38.7425 51.7999 38.7425 51.2092 38.7425 50.5647V47.0638C38.7425 46.4047 38.7425 45.8041 38.7425 45.2621C38.7425 44.7153 38.7425 44.1514 38.7425 43.5703C39.1851 43.5703 39.608 43.5703 40.0111 43.5703C40.4143 43.5703 40.8151 43.5703 41.2134 43.5703C41.6117 43.5703 42.0198 43.5703 42.4377 43.5703C43.249 43.5703 43.9694 43.6875 44.5988 43.9219C45.2282 44.1514 45.7567 44.4906 46.1845 44.9399C46.6172 45.3842 46.9442 45.9261 47.1655 46.5658C47.3916 47.2054 47.5048 47.9329 47.5048 48.7483C47.5048 49.4856 47.4064 50.174 47.2097 50.8137C47.0131 51.4484 46.6983 52.0075 46.2657 52.4909C45.8379 52.9694 45.2748 53.3429 44.5766 53.6114C43.8833 53.8799 43.0376 54.0142 42.0394 54.0142C41.6165 54.0142 41.2256 54.0142 40.8667 54.0142C40.5078 54.0142 40.1562 54.0142 39.812 54.0142C39.4727 54.0142 39.1162 54.0142 38.7425 54.0142ZM40.0775 52.9083H42.0468C43.0499 52.9083 43.849 52.7277 44.4439 52.3664C45.0388 52.0002 45.4666 51.5021 45.7272 50.8723C45.9879 50.2376 46.1181 49.5222 46.1181 48.7264C46.1181 48.116 46.0395 47.5619 45.8821 47.0638C45.7297 46.5658 45.4937 46.1385 45.1741 45.7821C44.8594 45.4257 44.4538 45.1523 43.9571 44.9619C43.4654 44.7714 42.8827 44.6762 42.2091 44.6762H40.0775C40.0775 45.0962 40.0775 45.516 40.0775 45.9359C40.0775 46.3509 40.0775 46.8075 40.0775 47.3055V50.3083C40.0775 50.7966 40.0775 51.2483 40.0775 51.6633C40.0775 52.0783 40.0775 52.4933 40.0775 52.9083ZM53.5503 54.1754C52.675 54.1754 51.9547 54.0094 51.3892 53.6773C50.8237 53.3453 50.4033 52.8912 50.128 52.3151C49.8526 51.739 49.715 51.0798 49.715 50.3376C49.715 49.6052 49.8501 48.9559 50.1206 48.3895C50.391 47.823 50.7794 47.3812 51.286 47.0638C51.7924 46.7416 52.3972 46.5804 53.1004 46.5804C53.7199 46.5804 54.251 46.7001 54.6935 46.9393C55.1409 47.1785 55.4851 47.5301 55.7261 47.994C55.967 48.4529 56.0875 49.0218 56.0875 49.7004C56.0875 49.8811 56.0825 50.0447 56.0727 50.1911C56.0678 50.3328 56.053 50.4768 56.0285 50.6233L54.959 50.0886C54.9688 50.0105 54.9738 49.9373 54.9738 49.8689C54.9787 49.7957 54.9811 49.7249 54.9811 49.6565C54.9811 48.9681 54.809 48.4456 54.4648 48.0892C54.1206 47.7278 53.6707 47.5472 53.1151 47.5472C52.6676 47.5472 52.2817 47.6619 51.9571 47.8914C51.6375 48.116 51.3892 48.4285 51.2122 48.8289C51.0352 49.2292 50.9467 49.6858 50.9467 50.1985V50.3669C50.9467 50.9333 51.045 51.4216 51.2417 51.8317C51.4384 52.2419 51.7359 52.5593 52.1342 52.7838C52.5373 53.0035 53.0487 53.1134 53.6683 53.1134C53.8993 53.1134 54.1427 53.0963 54.3985 53.0621C54.659 53.023 54.9148 52.9645 55.1655 52.8864C55.4212 52.8083 55.6646 52.7057 55.8957 52.5788L55.9473 53.67C55.7605 53.7726 55.5441 53.8629 55.2983 53.941C55.0524 54.0142 54.782 54.0704 54.487 54.1095C54.192 54.1534 53.8797 54.1754 53.5503 54.1754ZM50.2239 50.6233V49.759L55.2835 49.7151L56.0285 49.9934V50.6233H50.2239ZM62.0668 54.1754C61.1915 54.1754 60.4712 54.0094 59.9057 53.6773C59.3402 53.3453 58.9198 52.8912 58.6445 52.3151C58.3691 51.739 58.2315 51.0798 58.2315 50.3376C58.2315 49.6052 58.3666 48.9559 58.6371 48.3895C58.9075 47.823 59.296 47.3812 59.8025 47.0638C60.3089 46.7416 60.9137 46.5804 61.6169 46.5804C62.2364 46.5804 62.7675 46.7001 63.21 46.9393C63.6574 47.1785 64.0016 47.5301 64.2426 47.994C64.4835 48.4529 64.604 49.0218 64.604 49.7004C64.604 49.8811 64.599 50.0447 64.5893 50.1911C64.5843 50.3328 64.5695 50.4768 64.545 50.6233L63.4755 50.0886C63.4853 50.0105 63.4903 49.9373 63.4903 49.8689C63.4952 49.7957 63.4977 49.7249 63.4977 49.6565C63.4977 48.9681 63.3255 48.4456 62.9814 48.0892C62.6371 47.7278 62.1872 47.5472 61.6316 47.5472C61.1841 47.5472 60.7982 47.6619 60.4737 47.8914C60.154 48.116 59.9057 48.4285 59.7287 48.8289C59.5517 49.2292 59.4632 49.6858 59.4632 50.1985V50.3669C59.4632 50.9333 59.5615 51.4216 59.7582 51.8317C59.9549 52.2419 60.2524 52.5593 60.6507 52.7838C61.0538 53.0035 61.5653 53.1134 62.1848 53.1134C62.4158 53.1134 62.6592 53.0963 62.915 53.0621C63.1755 53.023 63.4313 52.9645 63.6821 52.8864C63.9377 52.8083 64.1811 52.7057 64.4122 52.5788L64.4639 53.67C64.277 53.7726 64.0606 53.8629 63.8148 53.941C63.5689 54.0142 63.2985 54.0704 63.0035 54.1095C62.7085 54.1534 62.3962 54.1754 62.0668 54.1754ZM58.7404 50.6233V49.759L63.8001 49.7151L64.545 49.9934V50.6233H58.7404ZM67.279 56.8706C67.279 56.3335 67.279 55.8061 67.279 55.2886C67.279 54.7759 67.279 54.2193 67.279 53.6188V50.074C67.279 49.5368 67.279 48.9875 67.279 48.4261C67.279 47.8646 67.279 47.3055 67.279 46.7489L68.3853 46.6757L68.4148 47.6204H68.5402C68.6877 47.43 68.8746 47.2567 69.1007 47.1004C69.327 46.9393 69.5851 46.8123 69.8753 46.7196C70.1703 46.6219 70.4923 46.5731 70.8414 46.5731C71.5102 46.5731 72.0781 46.7391 72.5451 47.0711C73.0172 47.3983 73.3762 47.8475 73.6221 48.4188C73.8679 48.99 73.9908 49.637 73.9908 50.3596C73.9908 51.0383 73.8752 51.6681 73.6442 52.2492C73.418 52.8253 73.0713 53.2916 72.6042 53.648C72.142 53.9996 71.5618 54.1754 70.8636 54.1754C70.539 54.1754 70.2391 54.1314 69.9637 54.0435C69.6884 53.9605 69.4376 53.8409 69.2114 53.6847C68.9901 53.5235 68.7886 53.3283 68.6066 53.0988H68.4959V53.67C68.4959 54.2413 68.4959 54.7735 68.4959 55.2666C68.4959 55.7647 68.4959 56.2847 68.4959 56.8266L67.279 56.8706ZM70.4947 53.0914C71.0209 53.0914 71.4487 52.9621 71.7782 52.7033C72.1125 52.4445 72.3559 52.11 72.5083 51.6999C72.6656 51.2849 72.7443 50.8405 72.7443 50.3669C72.7443 49.8737 72.6608 49.4246 72.4936 49.0193C72.3313 48.6092 72.083 48.2821 71.7487 48.0379C71.4143 47.7937 70.9889 47.6717 70.4726 47.6717C70.2169 47.6717 69.9662 47.7108 69.7203 47.7889C69.4745 47.8621 69.2458 47.9745 69.0343 48.1258C68.8278 48.2723 68.6484 48.4554 68.4959 48.6751V51.905C68.6434 52.154 68.8131 52.3664 69.0048 52.5421C69.2016 52.7179 69.4229 52.8546 69.6687 52.9523C69.9145 53.045 70.1899 53.0914 70.4947 53.0914ZM80.3221 54.0142C80.3221 53.4723 80.3221 52.9523 80.3221 52.4542C80.3221 51.9562 80.3221 51.4069 80.3221 50.8064V50.074C80.3221 49.6394 80.3221 49.239 80.3221 48.8728C80.3221 48.5018 80.3221 48.1453 80.3221 47.8035C80.3221 47.4568 80.3221 47.1053 80.3221 46.7489L81.5464 46.7049C81.5464 47.0663 81.5464 47.4227 81.5464 47.7742C81.5464 48.1209 81.5464 48.4822 81.5464 48.8582C81.5464 49.2292 81.5464 49.6345 81.5464 50.074V50.8064C81.5464 51.4069 81.5464 51.9562 81.5464 52.4542C81.5464 52.9523 81.5464 53.4723 81.5464 54.0142H80.3221ZM80.9121 45.0717C80.6466 45.0717 80.4302 44.9985 80.2631 44.852C80.0959 44.7055 80.0123 44.4809 80.0123 44.1782C80.0123 43.8804 80.0959 43.6582 80.2631 43.5117C80.4302 43.3604 80.6515 43.2847 80.9269 43.2847C81.1973 43.2847 81.4137 43.3628 81.5759 43.519C81.7382 43.6704 81.8193 43.8901 81.8193 44.1782C81.8193 44.4809 81.7382 44.7055 81.5759 44.852C81.4137 44.9985 81.1924 45.0717 80.9121 45.0717ZM84.8336 54.0142C84.8336 53.4723 84.8336 52.9523 84.8336 52.4542C84.8336 51.9562 84.8336 51.4069 84.8336 50.8064V50.074C84.8336 49.5368 84.8336 48.9875 84.8336 48.4261C84.8336 47.8646 84.8336 47.3055 84.8336 46.7489L85.8956 46.6757L85.9325 48.0233H86.0653C86.2226 47.8035 86.4242 47.5814 86.6701 47.3568C86.9159 47.1322 87.206 46.9466 87.5404 46.8002C87.8747 46.6488 88.2582 46.5731 88.691 46.5731C89.4678 46.5731 90.0358 46.7953 90.3948 47.2396C90.7537 47.6839 90.9332 48.3284 90.9332 49.1731C90.9332 49.4905 90.9332 49.7712 90.9332 50.0154C90.9332 50.2595 90.9332 50.5232 90.9332 50.8064C90.9332 51.3825 90.9332 51.9269 90.9332 52.4396C90.9332 52.9474 90.9332 53.4723 90.9332 54.0142H89.7162C89.7162 53.4723 89.7162 52.9498 89.7162 52.4469C89.7162 51.9391 89.7162 51.4094 89.7162 50.8576V49.4807C89.7162 48.8997 89.6105 48.4602 89.3991 48.1624C89.1925 47.8646 88.8164 47.7157 88.2706 47.7157C87.9411 47.7157 87.6412 47.7816 87.3708 47.9134C87.1003 48.0452 86.8545 48.2235 86.6332 48.448C86.4168 48.6678 86.2226 48.9119 86.0505 49.1804V50.8576C86.0505 51.4289 86.0505 51.9635 86.0505 52.4616C86.0505 52.9547 86.0505 53.4723 86.0505 54.0142H84.8336ZM96.8006 54.1754C96.3138 54.1754 95.9007 54.0923 95.5615 53.9264C95.2222 53.7554 94.964 53.4991 94.787 53.1573C94.6146 52.8106 94.5289 52.3688 94.5289 51.8317C94.5289 51.4069 94.5289 50.987 94.5289 50.572C94.5289 50.1521 94.5289 49.7419 94.5289 49.3416C94.5289 48.9363 94.5289 48.5481 94.5289 48.1771C94.5289 47.8011 94.5289 47.4422 94.5289 47.1004C94.5289 46.6024 94.5289 46.141 94.5289 45.7162C94.5289 45.2914 94.5289 44.8495 94.5289 44.3906L95.7311 44.1269C95.7311 44.4883 95.7311 44.8227 95.7311 45.1303C95.7311 45.4379 95.7311 45.748 95.7311 46.0604C95.7311 46.3729 95.7311 46.7196 95.7311 47.1004V51.5461C95.7311 52.0686 95.8417 52.4616 96.063 52.7252C96.2889 52.9889 96.6328 53.1207 97.0956 53.1207C97.2772 53.1207 97.4764 53.0914 97.693 53.0328C97.9088 52.9694 98.1005 52.8717 98.2683 52.7399L98.3716 53.8019C98.2729 53.8751 98.1402 53.941 97.9733 53.9996C97.8055 54.0533 97.6211 54.0948 97.4201 54.1241C97.2182 54.1583 97.0117 54.1754 96.8006 54.1754ZM93.1201 47.7083V46.7489H98.2978V47.7083C97.8055 47.7083 97.3095 47.7083 96.8079 47.7083C96.311 47.7083 95.827 47.7083 95.355 47.7083H94.8534H93.1201ZM103.878 54.1754C103.274 54.1754 102.74 54.0728 102.278 53.8678C101.821 53.6578 101.437 53.3746 101.127 53.0182C100.818 52.6618 100.581 52.254 100.419 51.7951C100.262 51.3312 100.183 50.8455 100.183 50.3376C100.183 49.6101 100.331 48.9656 100.626 48.4041C100.925 47.8377 101.349 47.3909 101.894 47.0638C102.445 46.7367 103.099 46.5731 103.856 46.5731C104.442 46.5731 104.96 46.6683 105.413 46.8588C105.865 47.0492 106.249 47.3153 106.563 47.6571C106.877 47.9988 107.116 48.3993 107.279 48.8582C107.441 49.3123 107.522 49.8055 107.522 50.3376C107.522 51.0554 107.374 51.7047 107.079 52.2858C106.784 52.8669 106.364 53.3283 105.818 53.67C105.277 54.0069 104.631 54.1754 103.878 54.1754ZM103.878 53.1207C104.414 53.1207 104.859 52.9889 105.213 52.7252C105.567 52.4616 105.833 52.1173 106.01 51.6926C106.187 51.2678 106.275 50.8162 106.275 50.3376C106.275 49.7908 106.177 49.3147 105.98 48.9095C105.784 48.5042 105.506 48.1892 105.147 47.9647C104.788 47.7401 104.362 47.6278 103.871 47.6278C103.34 47.6278 102.893 47.7474 102.529 47.9866C102.164 48.2259 101.89 48.5506 101.703 48.9607C101.521 49.3709 101.43 49.8298 101.43 50.3376C101.43 50.8162 101.518 51.2678 101.695 51.6926C101.877 52.1173 102.15 52.4616 102.514 52.7252C102.878 52.9889 103.333 53.1207 103.878 53.1207ZM113.829 54.0142C113.829 53.4723 113.829 52.9523 113.829 52.4542C113.829 51.9562 113.829 51.4069 113.829 50.8064V50.074C113.829 49.5368 113.829 48.9875 113.829 48.4261C113.829 47.8646 113.829 47.3055 113.829 46.7489L114.891 46.6757L114.928 48.0086H115.061C115.213 47.7937 115.405 47.5765 115.636 47.3568C115.872 47.1322 116.15 46.9466 116.469 46.8002C116.789 46.6488 117.155 46.5731 117.568 46.5731C118.169 46.5731 118.628 46.7221 118.948 47.0199C119.272 47.3128 119.483 47.7352 119.582 48.2869L119.656 48.3309C119.675 48.4627 119.69 48.5994 119.7 48.741C119.715 48.8777 119.722 49.0218 119.722 49.1731C119.722 49.4905 119.722 49.7712 119.722 50.0154C119.722 50.2595 119.722 50.5232 119.722 50.8064C119.722 51.3825 119.722 51.9269 119.722 52.4396C119.722 52.9474 119.722 53.4723 119.722 54.0142H118.505C118.505 53.4723 118.505 52.9498 118.505 52.4469C118.505 51.9391 118.505 51.4094 118.505 50.8576V49.4807C118.505 48.8997 118.407 48.4602 118.21 48.1624C118.014 47.8646 117.657 47.7157 117.141 47.7157C116.826 47.7157 116.54 47.784 116.285 47.9207C116.034 48.0526 115.806 48.2308 115.599 48.4554C115.397 48.6751 115.213 48.9168 115.046 49.1804V50.8576C115.046 51.4289 115.046 51.9635 115.046 52.4616C115.046 52.9547 115.046 53.4723 115.046 54.0142H113.829ZM123.122 54.0142C123.122 53.4723 123.122 52.9498 123.122 52.4469C123.122 51.9391 123.122 51.4094 123.122 50.8576V49.4807C123.122 48.8997 123.024 48.4602 122.827 48.1624C122.631 47.8646 122.274 47.7157 121.758 47.7157C121.448 47.7157 121.165 47.7816 120.91 47.9134C120.659 48.0452 120.427 48.2235 120.216 48.448C120.01 48.6678 119.825 48.9119 119.663 49.1804L119.486 48.0379H119.619C119.786 47.8133 119.99 47.5887 120.231 47.3641C120.477 47.1346 120.762 46.9466 121.087 46.8002C121.411 46.6488 121.78 46.5731 122.193 46.5731C122.96 46.5731 123.509 46.8002 123.838 47.2542C124.172 47.7083 124.339 48.348 124.339 49.1731C124.339 49.4905 124.339 49.7712 124.339 50.0154C124.339 50.2595 124.339 50.5232 124.339 50.8064C124.339 51.3825 124.339 51.9269 124.339 52.4396C124.339 52.9474 124.339 53.4723 124.339 54.0142H123.122ZM129.488 54.1754C128.711 54.1754 128.143 53.9532 127.785 53.5089C127.426 53.0646 127.246 52.4201 127.246 51.5754C127.246 51.2531 127.246 50.9748 127.246 50.7404C127.246 50.5012 127.246 50.2669 127.246 50.0373C127.246 49.6028 127.246 49.2049 127.246 48.8435C127.246 48.4773 127.246 48.1258 127.246 47.7889C127.246 47.452 127.246 47.1053 127.246 46.7489L128.463 46.6976C128.463 47.2347 128.463 47.7621 128.463 48.2796C128.463 48.7971 128.463 49.3416 128.463 49.9128V51.2897C128.463 51.8659 128.569 52.3053 128.78 52.6081C128.991 52.9059 129.368 53.0548 129.909 53.0548C130.223 53.0548 130.511 52.9889 130.772 52.8571C131.033 52.7204 131.27 52.5421 131.487 52.3224C131.704 52.1027 131.9 51.8585 132.077 51.59V49.9128C132.077 49.3416 132.077 48.8044 132.077 48.3016C132.077 47.7987 132.077 47.2811 132.077 46.7489H133.294C133.294 47.2811 133.294 47.8035 133.294 48.3162C133.294 48.8289 133.294 49.4026 133.294 50.0373V50.8064C133.294 51.4069 133.294 51.9562 133.294 52.4542C133.294 52.9523 133.294 53.4723 133.294 54.0142H132.232L132.188 52.7326H132.055C131.903 52.9523 131.704 53.1745 131.458 53.399C131.217 53.6188 130.931 53.8043 130.602 53.9557C130.273 54.1021 129.901 54.1754 129.488 54.1754ZM138.473 54.1754C138.169 54.1754 137.861 54.1509 137.551 54.1021C137.247 54.0533 136.959 53.9898 136.688 53.9117C136.418 53.8287 136.182 53.7359 135.98 53.6334L136.076 52.4982C136.302 52.6252 136.543 52.7374 136.799 52.8351C137.059 52.9278 137.328 53.0011 137.602 53.0548C137.883 53.1036 138.163 53.1281 138.443 53.1281C138.714 53.1281 138.962 53.0988 139.188 53.0402C139.42 52.9767 139.601 52.8644 139.734 52.7033C139.872 52.5373 139.941 52.298 139.941 51.9855C139.941 51.7804 139.882 51.612 139.763 51.4802C139.645 51.3483 139.446 51.2287 139.166 51.1213C138.891 51.0139 138.517 50.8942 138.045 50.7624C137.657 50.655 137.31 50.5232 137.005 50.3669C136.701 50.2106 136.459 50.0007 136.282 49.7371C136.111 49.4734 136.024 49.1292 136.024 48.7044C136.024 48.0452 136.241 47.5277 136.673 47.1517C137.111 46.7709 137.698 46.5804 138.436 46.5804C138.741 46.5804 139.036 46.6073 139.321 46.661C139.607 46.7098 139.87 46.7757 140.11 46.8588C140.352 46.9418 140.56 47.0297 140.737 47.1224L140.634 48.2576C140.398 48.1111 140.154 47.9915 139.904 47.8988C139.653 47.8011 139.412 47.7328 139.181 47.6937C138.95 47.6497 138.746 47.6278 138.569 47.6278C138.368 47.6278 138.166 47.6571 137.964 47.7157C137.767 47.7694 137.602 47.8719 137.47 48.0233C137.337 48.1697 137.271 48.3821 137.271 48.6604C137.271 48.8607 137.318 49.0291 137.411 49.1658C137.505 49.3025 137.667 49.4246 137.897 49.532C138.129 49.6394 138.449 49.7517 138.856 49.8689C139.343 50.0105 139.759 50.1594 140.103 50.3157C140.452 50.467 140.72 50.6672 140.907 50.9162C141.094 51.1652 141.187 51.5095 141.187 51.9489C141.187 52.3737 141.094 52.7545 140.907 53.0914C140.72 53.4235 140.427 53.6871 140.029 53.8824C139.631 54.0777 139.113 54.1754 138.473 54.1754ZM143.874 54.0142C143.874 53.4723 143.874 52.9523 143.874 52.4542C143.874 51.9562 143.874 51.4069 143.874 50.8064V50.074C143.874 49.6394 143.874 49.239 143.874 48.8728C143.874 48.5018 143.874 48.1453 143.874 47.8035C143.874 47.4568 143.874 47.1053 143.874 46.7489L145.098 46.7049C145.098 47.0663 145.098 47.4227 145.098 47.7742C145.098 48.1209 145.098 48.4822 145.098 48.8582C145.098 49.2292 145.098 49.6345 145.098 50.074V50.8064C145.098 51.4069 145.098 51.9562 145.098 52.4542C145.098 52.9523 145.098 53.4723 145.098 54.0142H143.874ZM144.464 45.0717C144.198 45.0717 143.981 44.9985 143.815 44.852C143.647 44.7055 143.564 44.4809 143.564 44.1782C143.564 43.8804 143.647 43.6582 143.815 43.5117C143.981 43.3604 144.203 43.2847 144.478 43.2847C144.748 43.2847 144.965 43.3628 145.127 43.519C145.29 43.6704 145.371 43.8901 145.371 44.1782C145.371 44.4809 145.29 44.7055 145.127 44.852C144.965 44.9985 144.744 45.0717 144.464 45.0717ZM151.571 54.1607C150.779 54.1607 150.106 53.9947 149.55 53.6627C149 53.3306 148.579 52.879 148.289 52.3078C147.998 51.7365 147.854 51.092 147.854 50.3742C147.854 49.6565 147.991 49.012 148.267 48.4407C148.547 47.8646 148.953 47.4105 149.484 47.0785C150.019 46.7464 150.671 46.5804 151.438 46.5804C151.723 46.5804 152.003 46.6049 152.279 46.6537C152.559 46.7025 152.822 46.7684 153.068 46.8514C153.314 46.9295 153.533 47.0224 153.725 47.1297L153.614 48.243C153.338 48.0867 153.078 47.9671 152.832 47.8841C152.592 47.7962 152.365 47.7376 152.154 47.7083C151.947 47.6742 151.755 47.6571 151.578 47.6571C150.831 47.6571 150.231 47.9012 149.779 48.3895C149.326 48.8728 149.1 49.5271 149.1 50.3523C149.1 50.8698 149.199 51.3385 149.395 51.7585C149.597 52.1735 149.897 52.503 150.295 52.7472C150.698 52.9864 151.198 53.1061 151.792 53.1061C152.003 53.1061 152.213 53.0866 152.419 53.0475C152.63 53.0084 152.84 52.9523 153.046 52.879C153.253 52.8009 153.452 52.7008 153.643 52.5788L153.747 53.6847C153.584 53.7726 153.395 53.8531 153.179 53.9264C152.962 53.9947 152.719 54.0509 152.449 54.0948C152.183 54.1388 151.891 54.1607 151.571 54.1607Z" fill="#CDCDCD"/>
</g>
</svg>
