<svg width="30" height="30" viewBox="0 0 30 30" fill="none" xmlns="http://www.w3.org/2000/svg">
<path fill-rule="evenodd" clip-rule="evenodd" d="M5.83045 4.06576C5.46255 3.73873 4.93697 3.65807 4.48793 3.85972C4.03889 4.06137 3.75 4.50778 3.75 5.00002V25C3.75 25.4923 4.03889 25.9387 4.48793 26.1403C4.93697 26.342 5.46255 26.2613 5.83045 25.9343L17.0805 15.9343C17.3473 15.6971 17.5 15.3571 17.5 15C17.5 14.643 17.3473 14.303 17.0805 14.0658L5.83045 4.06576Z" fill="white"/>
<path fill-rule="evenodd" clip-rule="evenodd" d="M20 3.75C19.3096 3.75 18.75 4.30964 18.75 5V25C18.75 25.6904 19.3096 26.25 20 26.25H25C25.6904 26.25 26.25 25.6904 26.25 25V5C26.25 4.30964 25.6904 3.75 25 3.75H20Z" fill="white"/>
</svg>
