<svg width="21" height="22" viewBox="0 0 21 22" fill="none" xmlns="http://www.w3.org/2000/svg">
<g id="Icon">
<path id="Vector" d="M14 11C14 10.5359 14.1844 10.0908 14.5126 9.76256C14.8408 9.43437 15.2859 9.25 15.75 9.25C16.2141 9.25 16.6592 9.43437 16.9874 9.76256C17.3156 10.0908 17.5 10.5359 17.5 11C17.5 11.4641 17.3156 11.9092 16.9874 12.2374C16.6592 12.5656 16.2141 12.75 15.75 12.75C15.2859 12.75 14.8408 12.5656 14.5126 12.2374C14.1844 11.9092 14 11.4641 14 11ZM8.75 11C8.75 10.5359 8.93437 10.0908 9.26256 9.76256C9.59075 9.43437 10.0359 9.25 10.5 9.25C10.9641 9.25 11.4092 9.43437 11.7374 9.76256C12.0656 10.0908 12.25 10.5359 12.25 11C12.25 11.4641 12.0656 11.9092 11.7374 12.2374C11.4092 12.5656 10.9641 12.75 10.5 12.75C10.0359 12.75 9.59075 12.5656 9.26256 12.2374C8.93437 11.9092 8.75 11.4641 8.75 11ZM3.5 11C3.5 10.5359 3.68437 10.0908 4.01256 9.76256C4.34075 9.43437 4.78587 9.25 5.25 9.25C5.71413 9.25 6.15925 9.43437 6.48744 9.76256C6.81563 10.0908 7 10.5359 7 11C7 11.4641 6.81563 11.9092 6.48744 12.2374C6.15925 12.5656 5.71413 12.75 5.25 12.75C4.78587 12.75 4.34075 12.5656 4.01256 12.2374C3.68437 11.9092 3.5 11.4641 3.5 11Z" fill="black" fill-opacity="0.93"/>
</g>
</svg>
