<svg width="30" height="30" viewBox="0 0 30 30" fill="none" xmlns="http://www.w3.org/2000/svg">
<g id="PrevIcon">
<g id="previous">
<path id="Union" fill-rule="evenodd" clip-rule="evenodd" d="M24.1695 4.06576C24.5374 3.73873 25.063 3.65807 25.5121 3.85972C25.9611 4.06137 26.25 4.50778 26.25 5.00002V25C26.25 25.4923 25.9611 25.9387 25.5121 26.1403C25.063 26.342 24.5374 26.2613 24.1695 25.9343L12.9195 15.9343C12.6527 15.6971 12.5 15.3571 12.5 15C12.5 14.643 12.6527 14.303 12.9195 14.0658L24.1695 4.06576Z" fill="white"/>
<path id="Union_2" fill-rule="evenodd" clip-rule="evenodd" d="M10 3.75C10.6904 3.75 11.25 4.30964 11.25 5V25C11.25 25.6904 10.6904 26.25 10 26.25H5C4.30964 26.25 3.75 25.6904 3.75 25V5C3.75 4.30964 4.30964 3.75 5 3.75H10Z" fill="white"/>
</g>
</g>
</svg>
