<svg width="30" height="30" viewBox="0 0 30 30" fill="none" xmlns="http://www.w3.org/2000/svg">
<g id="Volume Up">
<g id="Iconly/Bold/Volume-Up">
<g id="Volume-Up">
<path id="Vector" d="M13.447 3.75001C14.7512 3.75001 15.9676 4.68942 16.4067 6.19515C16.5679 6.82455 16.6335 7.45529 16.6964 8.06321L16.7554 8.61612C16.9808 10.4614 16.9808 19.5266 16.7554 21.3853L16.6964 21.9583C16.64 22.5367 16.5823 23.1352 16.4159 23.774C15.9768 25.2757 14.8063 26.25 13.4772 26.25C13.4352 26.25 13.3933 26.25 13.3461 26.2487C12.6121 26.2487 11.8138 25.7977 11.3616 25.4045L6.95359 21.7288H4.68993C2.94271 21.7288 1.66342 20.4633 1.43141 18.5053C1.16402 16.5473 1.21645 13.1883 1.43141 11.4088C1.68439 9.55552 3.02397 8.27122 4.68993 8.27122H6.95359L11.2777 4.64916C11.7994 4.19557 12.7196 3.74734 13.447 3.75001ZM24.1126 4.02634C24.6343 3.65595 25.3512 3.79149 25.7091 4.32158C27.6699 7.20822 28.75 11.0021 28.75 14.9999C28.75 19.0004 27.6699 22.7929 25.7091 25.6795C25.4954 25.9949 25.1428 26.1841 24.7666 26.1841C24.5333 26.1841 24.3079 26.1116 24.1139 25.9748C23.5948 25.603 23.4664 24.8716 23.8255 24.3402C25.5216 21.8414 26.4562 18.524 26.4562 14.9999C26.4562 11.4771 25.5216 8.1597 23.8255 5.6609C23.4664 5.13081 23.5948 4.39808 24.1126 4.02634ZM20.1604 7.82299C20.6834 7.45394 21.3978 7.5868 21.7582 8.11823C23.0244 9.98361 23.723 12.4274 23.723 15C23.723 17.5726 23.0244 20.0164 21.7582 21.8818C21.5433 22.1972 21.192 22.3864 20.8158 22.3864C20.5825 22.3864 20.3557 22.3139 20.1617 22.177C19.6427 21.8053 19.5142 21.0726 19.8747 20.5425C20.8774 19.0649 21.4292 17.0962 21.4292 15C21.4292 12.9025 20.8774 10.9351 19.8747 9.45755C19.5142 8.92746 19.6427 8.19473 20.1604 7.82299Z" fill="white"/>
</g>
</g>
</g>
</svg>
