<svg width="30" height="30" viewBox="0 0 30 30" fill="none" xmlns="http://www.w3.org/2000/svg">
<g id="Icon">
<g id="Vector">
<path d="M21.875 6.25L25 9.375L21.875 12.5H19.2331L21.1081 10.625H20.625C17.3869 10.625 16.0769 12.6869 14.533 15.1171C14.4158 15.3015 14.2973 15.488 14.1765 15.6759C14.0534 15.8673 13.9273 16.069 13.7966 16.278C12.3323 18.6189 10.2956 21.875 5.625 21.875V19.375C8.86311 19.375 10.1731 17.3131 11.717 14.8829C11.8342 14.6985 11.9527 14.512 12.0735 14.3241C12.1966 14.1327 12.3227 13.931 12.4534 13.7221C13.9177 11.3811 15.9544 8.125 20.625 8.125H21.1081L19.2331 6.25H21.875Z" fill="#F0FB54"/>
<path d="M15.9252 17.5961C16.0066 17.4638 16.0839 17.3382 16.1567 17.2217C17.2268 18.5016 18.5175 19.375 20.625 19.375H21.0983L19.2233 17.5H21.875L25 20.625L21.875 23.75H19.2234L21.0984 21.875H20.625C17.9122 21.875 16.088 20.7766 14.7484 19.397C15.2235 18.7371 15.6085 18.1111 15.9252 17.5961Z" fill="#F0FB54"/>
<path d="M5.625 8.125C8.3378 8.125 10.162 9.22343 11.5016 10.603C11.0265 11.2629 10.642 11.888 10.3253 12.403C10.2436 12.5358 10.1664 12.6614 10.0933 12.7783C9.02323 11.4984 7.73249 10.625 5.625 10.625V8.125Z" fill="#F0FB54"/>
</g>
</g>
</svg>
